{
    "asset" : {
        "generator" : "Khronos glTF Blender I/O v3.2.40",
        "version" : "2.0"
    },
    "scene" : 0,
    "scenes" : [
        {
            "name" : "Scene",
            "nodes" : [
                0
            ]
        }
    ],
    "nodes" : [
        {
            "mesh" : 0,
            "name" : "Teapot.001"
        }
    ],
    "meshes" : [
        {
            "name" : "Teapot.001",
            "primitives" : [
                {
                    "attributes" : {
                        "POSITION" : 0,
                        "NORMAL" : 1
                    },
                    "indices" : 2
                }
            ]
        }
    ],
    "accessors" : [
        {
            "bufferView" : 0,
            "componentType" : 5126,
            "count" : 3160,
            "max" : [
                3.434000015258789,
                3.1896774768829346,
                2
            ],
            "min" : [
                -3.0348780155181885,
                0,
                -2
            ],
            "type" : "VEC3"
        },
        {
            "bufferView" : 1,
            "componentType" : 5126,
            "count" : 3160,
            "type" : "VEC3"
        },
        {
            "bufferView" : 2,
            "componentType" : 5123,
            "count" : 4680,
            "type" : "SCALAR"
        }
    ],
    "bufferViews" : [
        {
            "buffer" : 0,
            "byteLength" : 37920,
            "byteOffset" : 0
        },
        {
            "buffer" : 0,
            "byteLength" : 37920,
            "byteOffset" : 37920
        },
        {
            "buffer" : 0,
            "byteLength" : 9360,
            "byteOffset" : 75840
        }
    ],
    "buffers" : [
        {
            "byteLength" : 85200,
            "uri" : "data:application/octet-stream;base64,"
        }
    ]
}
